**ABCDEFGHIJKLMNOPQRSTUVWXYZabcdefghijklmnopqrstuvwxyz**************************
**PARASOLID !"#$%&'()*+,-./:;<=>?@[\]^_`{|}~0123456789**************************
**PART1;
MC=x64/Windows NT;
MC_MODEL=genuineintel family 6 model 10 stepping 5, intel(r) xeon(r) cpu           w3550  @ 3.07ghz;
MC_ID=pc1401;
OS=windows nt (x64);
OS_RELEASE=6.1 windows 7 professional (build 7601) service pack 1;
FRU=mdc_ugii_v7.0_djl_can_vrh;
APPL=unigraphics;
SITE=unknown;
USER=huge;
FORMAT=text;
GUISE=transmit;
KEY=08-1_3;
FILE=D:\Daten-Huge\PLM_Export\A_Internet_Modelle\Getriebe\08-x\08-1\08-1_3.x_t;
DATE=23-aug-2016;
**PART2;
SCH=SCH_2701211_26105;
USFLD_SIZE=0;
**PART3;
**END_OF_HEADER*****************************************************************
T51 : TRANSMIT FILE created by modeller version 270121123 SCH_2701211_26105_1300
6200 0 12 30 CCCCCCCCCCCCCDI5 owner1040 0 CCCCCCCCCA13 boundary_mesh1006 0 A16 i
ndex_map_offset0 0 1 dA9 index_map82 0 A17 node_id_index_map82 0 A20 schema_embe
dding_map82 0 A5 child12 0 A14 lowest_node_id0 0 1 dZ1 1190 2 3 0 0 0 0 1e3 1e-8
 0 0 0 1 0 1 1 4 5 6 7 8 9 10 0 0 0 0 0 0 0 81 255 1 2 1190 11 1 12 0 0 0 13 70
 11 CI9 list_type0 0 1 uI10 notransmit0 0 1 lCCCDCCDI12 finger_index0 0 1 dI12 f
inger_block1012 0 CZ3 0 4 T1 0 0 6 20 1 14 14 13 255 4 3 0 1 0 15 0 0 16 0 52 25
5 5 817 0 17 18 0 0 +-542101086242752e-34 0 -.0146 2220446049250315e-32 49303806
5763133e-48 -1 .003 .882947592858927 .469471562785891 1 0 0 31 255 6 959 0 19 20
 0 0 --542101086242752e-34 0 -.0113 0 0 1 1 0 0 .002479375 29 255 7 607 0 10 21
 0 0 -55e-5 .0059 19 8 CCCCCCCA5 owner12 0 Z8 1 0 1 16 0 22 V0 16 255 9 966 23 ?
24 0 19 25 0 0 1 18 255 10 604 0 26 0 27 7 ?1 17 255 26 0 28 26 26 10 29 30 0 31
 +18 27 593 0 32 10 33 21 ?1 17 32 0 34 35 31 27 36 37 0 38 +18 33 589 0 39 27 4
0 41 ?1 29 21 596 0 27 41 7 -.000509901951359279 -55e-5 .0057 29 41 592 0 33 42
 21 .000509901951359279 -55e-5 .0057 29 42 556 0 40 43 41 -.00050990195135928 -5
5e-5 .0029 18 40 465 0 35 33 44 42 ?1 29 43 557 0 44 0 42 .00050990195135928 -55
e-5 .0029 18 44 458 0 45 40 0 43 ?1 17 45 0 46 47 47 44 48 49 0 50 +15 255 46 52
0 0 47 51 0 17 47 0 46 45 45 40 50 52 0 0 +17 48 0 53 38 54 40 45 49 0 47 -16 49
 353 55 ?45 56 57 58 0 0 1 17 50 0 34 59 35 44 47 52 0 54 -15 34 515 0 59 60 0 1
7 59 0 34 31 50 33 54 61 0 0 +17 35 0 34 50 32 40 38 62 0 48 +16 52 422 63 ?47 6
2 64 65 0 0 1 17 54 0 53 48 66 44 59 61 0 0 -15 53 361 0 38 67 68 17 66 0 53 54
 38 33 69 56 0 59 +16 61 424 70 ?59 71 62 72 0 0 1 81 1 70 1098 73 61 0 0 74 63
 75 16 71 176 76 ?77 78 61 79 0 0 1 16 62 594 74 ?35 61 52 80 0 0 1 30 255 72 54
0 0 61 80 79 0 -.000509901951359279 -55e-5 .0059 0 0 -1 30 80 541 0 62 65 72 0 +
-.000509901951359279 -55e-5 .0059 0 0 -1 31 79 198 0 71 72 81 0 +433680868994202
e-33 0 .00197 0 0 1 1 0 0 .0015 31 81 145 0 82 79 83 0 +0 0 -5e-4 0 0 -1 -1 0 0
 .003995 16 82 108 84 ?85 86 78 81 0 0 1 31 83 142 0 78 81 87 0 +0 0 -499e-6 0 0
 -1 -1 0 0 .003995 16 78 110 88 ?89 82 71 83 0 0 1 31 87 84 0 90 83 91 0 +-54210
1086242752e-34 0 -.015 0 0 -1 -1 0 0 .004 16 90 67 92 ?93 94 95 87 0 0 1 31 91 5
7 0 94 87 96 0 +0 0 0 0 0 -1 -1 0 0 .004 16 94 37 97 ?98 99 90 91 0 0 1 31 96 56
 0 99 91 100 0 -0 0 0 0 0 1 1 0 0 .002 16 99 36 101 ?102 103 94 96 0 0 1 31 100
 16 0 103 96 104 0 +0 0 .001 0 0 -1 -1 0 0 .002 16 103 12 105 ?106 107 99 100 0
 0 1 31 104 91 0 86 100 108 0 -0 0 -499e-6 0 0 -1 -1 0 0 .004 16 86 109 109 ?110
 95 82 104 0 0 1 31 108 98 0 95 104 111 0 -0 0 -5e-4 0 0 -1 -1 0 0 .004 16 95 10
7 112 ?113 90 86 108 0 0 1 31 111 168 0 107 108 114 0 +433680868994202e-33 0 .00
1 0 0 1 1 0 0 .0015 16 107 165 115 ?116 57 103 111 0 0 1 31 114 236 0 57 111 58
 0 +0 0 .00197 0 0 1 1 0 0 75e-5 16 57 233 117 ?118 49 107 114 0 0 1 31 58 355 0
 49 114 119 0 -0 0 .0029 0 0 -1 -1 0 0 75e-5 31 119 599 0 56 58 120 0 +0 0 .0057
 0 0 -1 -1 0 0 75e-5 16 56 597 121 ?66 37 49 119 0 0 1 38 255 120 610 0 37 119 1
22 0 +18 123 124 125 126 16 37 608 127 ?32 128 56 120 0 0 1 38 122 617 0 128 120
 129 0 +18 123 130 131 132 52 18 650 0 133 134 5 135 +0 0 .0057 0 0 -1 75e-5 .70
7106781186548 .707106781186547 -1 0 0 50 255 123 535 0 60 136 137 138 +75e-5 -55
e-5 .0059 0 1 361400724161835e-30 0 -361400724161835e-30 1 40 255 3 124 0 1 3 57
0869777406055e-19 .325301804296035 ??-216840434497101e-33 -55e-5 .0059 -.0001970
528284509545 -55e-5 .00586576561450004 -.000509901951359278 -55e-5 .0057 41 255
 1 125 L-216840434497101e-33 -55e-5 .0059 41 1 126 L-.000509901951359278 -55e-5
 .0057 14 255 60 511 139 ?51 67 34 4 123 -0 0 51 67 22 50 136 536 0 51 140 123 0
 +75e-5 -55e-5 .0029 0 0 -1 -1 0 0 50 137 277 0 141 123 142 0 +0 0 .0059 0 0 -1
 -1 0 0 141 255 138 120 143 143 123 141 143 122 138 138 123 14 141 263 144 ?145
 146 28 4 137 -0 0 145 146 22 51 255 142 275 0 67 137 147 0 +0 0 .0059 0 0 -1 75
e-5 -1 0 0 14 67 257 148 ?60 149 53 4 142 +0 0 60 149 22 50 147 196 0 150 142 15
1 0 +433680868994202e-33 0 .00197 0 0 1 1 0 0 14 150 182 152 ?149 153 154 4 147
 +0 0 149 153 22 51 151 194 0 149 147 155 0 +433680868994202e-33 0 0 0 0 1 .0015
 1 0 0 14 149 188 156 ?67 150 157 4 151 +0 0 67 150 22 51 155 141 0 158 151 159
 0 +0 0 -4995e-7 0 0 -1 .003995 -1 0 0 14 158 120 160 ?161 162 163 4 155 +0 0 16
1 162 22 50 159 140 0 161 155 164 0 +0 0 -499e-6 0 0 -1 -1 0 0 14 161 124 165 ?1
53 158 166 4 159 +0 0 153 158 22 50 164 138 0 153 159 167 0 +0 0 -5e-4 0 0 -1 -1
 0 0 14 153 132 168 ?150 161 169 4 164 -0 0 150 161 22 50 167 82 0 170 164 171 0
 +-542101086242752e-34 0 -.015 0 0 -1 -1 0 0 14 170 69 172 ?173 174 175 4 167 +0
 0 173 174 22 50 171 54 0 162 167 176 0 +0 0 0 0 0 1 1 0 0 14 162 43 177 ?158 17
8 179 4 171 +0 0 158 178 22 51 176 53 0 173 171 180 0 +0 0 0 0 0 -1 .004 -1 0 0
 14 173 47 181 ?17 170 182 4 176 +146 145 17 170 22 50 180 17 0 183 176 134 0 +0
 0 .001 0 0 1 1 0 0 14 183 15 184 ?178 145 185 4 180 +0 0 178 145 22 51 134 18 0
 178 180 18 0 +0 0 0 0 0 1 .002 1 0 0 14 178 2 186 ?162 183 187 4 134 +0 0 162 1
83 22 81 1 186 1145 188 178 189 0 184 177 190 15 187 13 0 106 178 191 13 22 4 0
 0 0 0 0 0 8 15 14 15 769 192 ?146 0 193 4 194 -0 0 146 0 22 81 1 192 1135 188 1
5 195 0 0 196 197 14 146 671 196 ?141 15 198 4 176 +145 173 141 15 22 15 193 773
 0 199 15 200 51 194 788 0 15 201 202 0 +-542101086242752e-34 0 -.0112 0 0 1 .00
2479375 1 0 0 50 201 789 0 203 204 194 0 +-542101086242752e-34 0 -.0112 0 0 1 1
 0 0 51 202 786 0 205 194 206 0 +-542101086242752e-34 0 -.015 0 0 1 .003 1 0 0 1
4 205 779 207 ?208 17 209 4 202 -0 0 208 17 22 51 206 724 0 210 202 211 0 +0 0 -
.0140995 0 0 -1 .003995 -1 0 0 14 210 703 212 ?213 133 214 4 206 +0 0 213 133 22
 50 211 723 0 213 206 140 0 +0 0 -.014099 0 0 -1 -1 0 0 14 213 707 215 ?174 210
 216 4 211 +0 0 174 210 22 50 140 721 0 174 211 136 0 +0 0 -.0141 0 0 -1 -1 0 0
 14 174 715 217 ?170 213 218 4 140 -0 0 170 213 22 81 1 217 1171 188 174 219 0 2
15 172 220 15 218 717 0 221 174 222 17 221 0 218 221 221 0 223 64 0 0 +15 222 71
8 0 224 174 0 17 224 0 222 224 224 0 225 226 0 0 +17 225 0 214 225 225 0 224 226
 0 0 -16 226 691 227 ?224 228 229 230 0 0 1 81 1 227 1093 73 226 0 0 23 231 232
 16 228 692 233 ?234 64 226 235 0 0 1 16 229 693 231 ?236 226 237 238 0 0 1 31 2
30 728 0 226 239 238 0 +0 0 -.0141 0 0 -1 -1 0 0 .003995 31 239 793 0 240 241 23
0 0 +-542101086242752e-34 0 -.0146 0 0 1 1 0 0 .003 31 238 725 0 229 230 65 0 +0
 0 -.014099 0 0 -1 -1 0 0 .003995 30 65 545 0 52 238 80 0 +75e-5 -55e-5 .0029 -1
 0 0 16 240 759 242 ?243 237 244 239 0 0 1 31 241 794 0 244 245 239 0 +-54210108
6242752e-34 0 -.015 0 0 1 1 0 0 .003 16 244 760 246 ?247 240 248 241 0 0 1 31 24
5 862 0 249 25 241 0 +-542101086242752e-34 0 -.0096 0 0 1 1 0 0 .00127 16 249 83
6 250 ?251 248 252 245 0 0 1 31 25 1040 0 9 253 245 0 +0 0 -.0112 0 0 1 -1 12246
46799147352e-31 0 .00147 31 253 1042 0 252 0 25 0 +0 0 -.0113 0 0 1 -1 122464679
9147352e-31 0 .00147 16 252 987 254 ?255 249 0 253 0 0 1 81 1 254 1088 73 252 0
 0 246 250 256 17 255 0 257 255 255 0 258 252 0 0 +15 257 1011 0 255 208 259 17
 258 0 260 258 258 0 255 252 0 0 -15 260 1023 0 258 261 262 14 261 1019 263 ?264
 208 260 4 265 -0 0 264 208 22 15 262 1024 0 24 261 0 17 24 0 262 24 24 0 266 9
 0 0 +17 266 0 267 266 266 0 24 9 0 0 -15 267 968 0 266 203 0 14 203 765 268 ?0
 269 270 4 201 -0 0 0 269 22 81 1 268 1189 188 203 271 0 272 0 273 14 269 851 27
2 ?203 264 274 4 204 -0 0 203 264 22 15 270 823 0 275 203 267 17 275 0 270 275 2
75 0 276 248 0 0 +17 276 0 277 276 276 0 275 248 0 0 -16 248 835 278 ?275 244 24
9 20 0 0 1 81 1 278 1090 73 248 0 0 250 279 280 31 20 825 0 248 281 6 0 +-542101
086242752e-34 0 -.0112 0 0 1 1 0 0 .00127 31 281 816 0 237 282 20 0 --6035677453
07289e-34 -1364834002804668e-52 -.01432317877714124 2220446049250315e-32 4930380
65763133e-48 -1 -1 0 -2220446049250315e-32 .002479375 16 237 758 283 ?284 229 24
0 281 0 0 1 31 282 679 0 64 235 281 0 -0 0 -.0141 0 0 -1 -1 0 0 .004 16 64 690 2
85 ?221 52 228 282 0 0 1 31 235 670 0 228 129 282 0 -0 0 -.014099 0 0 -1 -1 0 0
 .004 31 129 624 0 30 122 235 0 -0 0 .0059 0 0 -1 -1 0 0 55e-5 16 30 622 286 ?26
 19 128 129 0 0 1 81 1 286 1084 73 30 0 0 117 283 287 16 19 956 279 ?288 9 30 6
 0 0 1 16 128 615 289 ?31 30 37 122 0 0 1 81 1 289 1101 73 128 0 0 55 121 290 17
 31 0 34 32 59 10 39 128 0 29 +17 39 0 291 69 29 33 31 128 0 66 -17 29 0 291 39
 36 10 26 30 0 36 -15 291 639 0 36 133 0 17 36 0 291 29 69 10 32 37 0 0 -17 69 0
 291 36 39 27 66 56 0 0 -14 133 638 292 ?210 51 291 4 18 +0 0 210 51 22 81 1 292
 1165 188 133 293 0 294 212 295 14 51 516 294 ?133 60 46 4 136 -0 0 133 60 22 81
 1 294 1163 188 51 296 0 139 292 297 80 255 1 188 0 298 8001 0 0 0 0 3 5 0 0 0 F
FFFTFTFFFFFFF2 81 1 296 1162 299 51 300 294 301 293 302 81 1 139 1161 188 60 301
 0 148 294 303 83 255 3 297 .6 .6 .6 81 1 301 1160 299 60 304 139 305 296 306 81
 1 148 1159 188 67 305 0 156 139 307 83 3 303 .6 .6 .6 81 1 305 1158 299 67 308
 148 309 301 310 81 1 156 1157 188 149 309 0 152 148 311 83 3 307 .6 .6 .6 81 1
 309 1156 299 149 312 156 313 305 314 81 1 152 1155 188 150 313 0 168 156 315 83
 3 311 .6 .6 .6 81 1 313 1154 299 150 316 152 317 309 318 81 1 168 1153 188 153
 317 0 165 152 319 83 3 315 .6 .6 .6 81 1 317 1152 299 153 320 168 321 313 322 8
1 1 165 1151 188 161 321 0 160 168 323 83 3 319 .6 .6 .6 81 1 321 1150 299 161 3
24 165 325 317 326 81 1 160 1149 188 158 325 0 177 165 327 83 3 323 .6 .6 .6 81
 1 325 1148 299 158 328 160 329 321 330 81 1 177 1147 188 162 329 0 186 160 331
 83 3 327 .6 .6 .6 81 1 329 1146 299 162 332 177 189 325 333 83 3 331 .6 .6 .6 8
0 1 299 334 335 8015 0 0 0 0 3 5 0 0 0 FFFFTFFFFFFFFF2 81 1 332 1107 73 162 0 32
9 336 337 338 81 1 189 1144 299 178 339 186 340 329 341 83 1 333 0 81 1 339 1104
 73 178 0 189 127 342 343 81 1 340 1142 299 183 342 184 344 189 345 83 1 341 0 8
1 1 342 1105 73 183 0 340 339 336 346 81 1 184 1143 188 183 340 0 347 186 348 81
 1 344 1140 299 145 349 347 350 340 351 83 1 345 0 14 145 92 347 ?183 141 352 4
 176 +173 146 183 141 22 81 1 349 1112 73 145 0 344 320 353 354 81 1 347 1141 18
8 145 344 0 144 184 355 81 1 350 1138 299 141 353 144 356 344 357 83 1 351 0 81
 1 353 1113 73 141 0 350 349 308 358 81 1 144 1139 188 141 350 0 196 347 359 81
 1 356 1136 299 146 360 196 195 350 361 83 1 357 0 81 1 360 1131 73 146 0 356 36
2 0 363 81 1 196 1137 188 146 356 0 192 144 364 81 1 195 1134 299 15 365 192 0 3
56 366 83 1 361 0 81 1 365 1121 73 15 0 195 367 368 369 83 1 366 0 80 1 73 370 3
71 9000 1 1 1 1 1 1 1 1 0 FFFFTFTFFFFFFF3 81 1 367 1120 73 203 0 271 372 365 373
 81 1 368 1122 73 17 0 374 365 375 376 84 255 32 369 3e11eebfb9e6c01a6d051ea1a1f
0de7114 17 774 377 ?205 173 378 4 5 -0 0 205 173 22 81 1 374 1176 299 17 368 377
 379 380 381 81 1 375 1123 73 205 0 380 368 382 383 84 32 376 3cfe69df09ebc00cd1
f7d0dd7918c5a381 1 380 1178 299 205 375 207 374 384 385 81 1 382 1124 73 261 0 3
86 375 387 388 84 32 383 eacf295bb2357215648d209868d2a53881 1 386 1182 299 261 3
82 263 384 389 390 81 1 387 1125 73 208 0 384 382 391 392 84 32 388 3982894ccc52
15773d0877d133a5f09a14 208 1025 393 ?261 205 257 4 394 -0 0 261 205 22 81 1 384
 1180 299 208 387 393 380 386 395 81 1 391 1126 73 264 0 389 387 396 397 84 32 3
92 55c74d5a1ff95ea318e335e699c1e56714 264 843 398 ?269 261 399 4 400 -0 0 269 26
1 22 81 1 389 1184 299 264 391 398 386 401 402 81 1 396 1127 73 269 0 401 391 40
3 404 84 32 397 c5ebe87a4c4c9a9feee78ee2d12ab8b081 1 401 1186 299 269 396 272 38
9 271 405 81 1 403 1128 73 210 0 406 396 407 408 84 32 404 b84f1e7035a9a89e1fe31
884162ada8d81 1 406 1166 299 210 403 212 293 409 410 81 1 407 1129 73 213 0 409
 403 362 411 84 32 408 c53e3c1e4a76c93039726290a0a2ec0c81 1 409 1168 299 213 407
 215 406 219 412 81 1 362 1130 73 174 0 219 407 360 413 84 32 411 e369e0d7255709
5d33e7374b62c9de9a81 1 219 1170 299 174 362 217 409 414 415 84 32 413 d1b09475a5
fca8073fed0e92bd6ceff481 1 414 1172 299 170 337 172 219 379 416 83 1 415 0 81 1
 337 1108 73 170 0 414 332 328 417 81 1 172 1173 188 170 414 0 217 181 418 81 1
 379 1174 299 173 336 181 414 374 419 83 1 416 0 81 1 336 1106 73 173 0 379 342
 332 420 81 1 181 1175 188 173 379 0 172 377 421 83 1 419 0 81 1 377 1177 188 17
 374 0 181 207 422 83 3 421 .6 .6 .6 81 1 207 1179 188 205 380 0 377 393 423 83
 3 422 .6 .6 .6 81 1 393 1181 188 208 384 0 207 263 424 83 3 423 .6 .6 .6 81 1 2
63 1183 188 261 386 0 393 398 425 83 3 424 .6 .6 .6 81 1 398 1185 188 264 389 0
 263 272 426 83 3 425 .6 .6 .6 81 1 272 1187 188 269 401 0 398 268 427 83 3 426
 .6 .6 .6 83 3 427 .6 .6 .6 84 32 420 e3844e574324aa4e926d5e127c6945a783 3 418 .
6 .6 .6 81 1 328 1109 73 158 0 325 337 324 428 84 32 417 cc853bef1bafea59b762a87
e2ee16a3281 1 324 1110 73 161 0 321 328 320 429 84 32 428 c54420c46515ae3fa31878
12485a948781 1 320 1111 73 153 0 317 324 349 430 84 32 429 0e8c2e8ee93695375e24c
67627e7b4b284 32 430 7f6e4d18b830a9940bf703f19b11ff9f81 1 215 1169 188 213 409 0
 212 217 431 83 1 412 0 81 1 212 1167 188 210 406 0 292 215 432 83 3 431 .6 .6 .
6 83 3 432 .6 .6 .6 81 1 293 1164 299 133 372 292 296 406 433 83 1 410 0 81 1 37
2 1119 73 133 0 293 300 367 434 83 1 433 0 81 1 300 1118 73 51 0 296 304 372 435
 84 32 434 ac0caeba5e9f8e1f9c94a81813dc6a3a81 1 304 1117 73 60 0 301 316 300 436
 84 32 435 934039f9faea6eddcc3f7fcc460c423381 1 316 1116 73 150 0 313 312 304 43
7 84 32 436 60187d9f57c2647740f8fb45e128fae681 1 312 1115 73 149 0 309 308 316 4
38 84 32 437 0a298b288f3d681da1e67e05d8839d0181 1 308 1114 73 67 0 305 353 312 4
39 84 32 438 c04453d7af89b8541af73476a758b01884 32 439 ad4c0fd2a7512c3976768ce6a
5fce42981 1 271 1188 299 203 367 268 401 0 440 83 1 405 0 83 1 440 0 83 1 402 0
 15 399 846 0 441 264 0 50 400 860 0 264 265 204 0 +-542101086242752e-34 0 -.009
6 0 0 1 1 0 0 51 265 1037 0 261 394 400 0 +0 0 -.0113 0 0 1 .00147 1 0 0 51 204
 858 0 269 400 201 0 +-542101086242752e-34 0 -.015 0 0 1 .00127 1 0 0 50 394 103
9 0 208 0 265 0 +0 0 -.0113 0 0 1 1 0 0 17 441 0 399 441 441 0 251 249 0 0 -17 2
51 0 274 251 251 0 441 249 0 0 +15 274 841 0 251 269 277 15 277 842 0 276 269 0
 83 1 395 0 83 1 390 0 83 1 385 0 83 1 381 0 15 378 777 0 284 17 442 17 284 0 37
8 284 284 0 199 237 0 0 +15 442 778 0 443 17 0 17 443 0 442 443 443 0 243 240 0
 0 -17 243 0 209 243 243 0 443 240 0 0 +15 209 782 0 243 205 444 15 444 783 0 44
5 205 0 17 445 0 444 445 445 0 247 244 0 0 -17 247 0 175 247 247 0 445 244 0 0 +
15 175 748 0 247 170 446 15 446 71 0 93 170 0 17 93 0 446 93 93 0 447 90 0 0 +17
 447 0 448 447 447 0 93 90 0 0 -15 448 76 0 447 173 0 17 199 0 193 199 199 0 284
 237 0 0 -84 32 373 dca6aba39d4434f565ff8c8c6007516079 255 15 371 UGS/ObjectStat
e83 3 364 .6 .6 .6 84 32 363 e5a3e5df6a475afb768fbce02600adbe83 3 359 .6 .6 .6 8
4 32 358 34136fe5e8cd9419aa9445917fb47dc883 3 355 .6 .6 .6 84 32 354 a996c954258
0c6f62ab2326117b0ad8f15 352 50 0 98 145 449 17 98 0 352 98 98 0 450 94 0 0 +15 4
49 89 0 110 145 0 17 110 0 449 110 110 0 451 86 0 0 +17 451 0 166 451 451 0 110
 86 0 0 -15 166 126 0 451 161 452 15 452 127 0 453 161 0 17 453 0 452 453 453 0
 89 78 0 0 -17 89 0 454 89 89 0 453 78 0 0 +15 454 123 0 89 158 0 17 450 0 455 4
50 450 0 98 94 0 0 -15 455 46 0 450 162 0 83 3 348 .6 .6 .6 84 32 346 0ec5798a6e
8ac1f12a064c058a05590781 1 127 1103 73 37 0 0 121 339 456 84 32 343 5272b5a1e914
7fd1710df44642d1e50081 1 121 1102 73 56 0 0 289 127 457 84 32 456 6731c473803a29
bcae61e7c4766adae784 32 457 63efd161e5911c982c5bbc6468781e7784 32 338 6946413779
305bb3a77a95cb813a9b9d79 21 335 SDL/TYSA_TRANSLUCENCY83 1 330 0 83 1 326 0 83 1
 322 0 83 1 318 0 83 1 314 0 83 1 310 0 83 1 306 0 83 1 302 0 79 15 298 SDL/TYSA
_COLOUR83 3 295 .6 .6 .6 81 1 55 1100 73 49 0 0 63 289 458 84 32 290 6056dbeab57
184ef4f8dc16d98b4d6ed81 1 63 1099 73 52 0 0 70 55 459 84 32 458 2ed122e8c45e7183
9392c776ed3de23384 32 459 fe62d570e9f7c577743cca87208eead881 1 279 1091 73 19 0
 0 278 23 460 17 288 0 259 288 288 0 461 19 0 0 +15 259 1012 0 288 208 0 17 461
 0 200 461 461 0 288 19 0 0 -15 200 958 0 461 15 0 81 1 23 1092 73 9 0 0 279 227
 462 84 32 460 ae9b82f9032b1fa8e05ba62d66cb125884 32 462 b7f2a9aef27192c8ef31916
560925ac881 1 117 1083 73 57 0 0 115 286 463 81 1 283 1085 73 237 0 0 286 242 46
4 84 32 287 25c8df90d83719f32f632f605dc8a43681 1 242 1086 73 240 0 0 283 246 465
 84 32 464 ae76f365c7fa578951fea3f30a44d5f181 1 246 1087 73 244 0 0 242 254 466
 84 32 465 89f68eabcfd8ec615e15554f299db8a284 32 466 63adc6317f6c292ed21aec0a347
c03a881 1 115 1082 73 107 0 0 76 117 467 84 32 463 1956dfe3fcbe69b801b699322598c
6d381 1 76 1081 73 71 0 0 109 115 468 84 32 467 66b242f5f42fc5909e3d4d24ad040e66
81 1 109 1080 73 86 0 0 112 76 469 84 32 468 90820f600cb57e055c08fd6efcb0813f81
 1 112 1079 73 95 0 0 88 109 470 84 32 469 617f02d12cb5ec58116f6a519eef4f9f81 1
 88 1078 73 78 0 0 84 112 471 84 32 470 791bbe3eeaa3979da2fb3e373e68b40781 1 84
 1077 73 82 0 0 92 88 472 84 32 471 ef9edaafd21c5d3009faaaf18175cfff81 1 92 1076
 73 90 0 0 101 84 473 84 32 472 bce84f0d44584256e218a2b25b358fa581 1 101 1075 73
 99 0 0 97 92 474 84 32 473 6734260613a9319add592a5642d70be981 1 97 1074 73 94 0
 0 105 101 475 84 32 474 9fbbe895497dc9f3d7befde4316e41a281 1 105 1073 73 103 0
 0 0 97 476 84 32 475 551437699ee9e6de0928b9a01c62765584 32 476 c628372628ed16ee
4ea2f3459b061b5581 1 285 1096 73 64 0 0 233 74 477 81 1 233 1095 73 228 0 0 231
 285 478 81 1 74 1097 73 62 0 0 285 70 479 84 32 477 a5287183271445c387f525736ac
0e2c984 32 479 264ca66e2f0db8867e10154c609b46a081 1 231 1094 73 229 0 0 227 233
 480 84 32 478 7c7531640a2f5d96c17ab42e5781cfd684 32 480 089bd3c0050a8097b70b381
584a4731581 1 250 1089 73 249 0 0 254 278 481 84 32 280 3947302d00894c6b371c9393
956608dd84 32 481 1ed9bd2a9633a5516ed4067f06278d1783 3 273 .6 .6 .6 84 32 256 47
6eb639833c5cda69ae613a3defaa6617 236 0 482 236 236 0 483 229 0 0 +15 482 706 0 2
36 210 0 17 483 0 484 483 483 0 236 229 0 0 -15 484 710 0 483 213 0 17 234 0 485
 234 234 0 486 228 0 0 +15 485 668 0 234 146 0 17 486 0 216 486 486 0 234 228 0
 0 -15 216 709 0 486 213 484 84 32 232 bca4e2e29f36a9be2c29a96cce63484115 214 70
5 0 225 210 482 17 223 0 182 223 223 0 221 64 0 0 -15 182 678 0 223 173 448 83 3
 220 .6 .6 .6 15 198 97 0 487 146 485 17 487 0 198 487 487 0 113 95 0 0 -17 113
 0 169 113 113 0 487 95 0 0 +15 169 134 0 113 153 488 15 488 135 0 85 153 0 17 8
5 0 488 85 85 0 489 82 0 0 +17 489 0 163 489 489 0 85 82 0 0 -15 163 122 0 489 1
58 454 83 3 197 .6 .6 .6 17 106 0 187 106 106 0 490 103 0 0 +15 191 7 0 491 178
 0 17 491 0 191 491 491 0 102 99 0 0 -17 102 0 179 102 102 0 491 99 0 0 +15 179
 45 0 102 162 455 17 490 0 492 490 490 0 106 103 0 0 -15 492 14 0 490 183 0 83 3
 190 .6 .6 .6 15 185 167 0 493 183 492 17 493 0 185 493 493 0 116 107 0 0 -17 11
6 0 157 116 116 0 493 107 0 0 +15 157 190 0 116 149 494 15 494 191 0 495 149 0 1
7 495 0 494 495 495 0 77 71 0 0 -17 77 0 496 77 77 0 495 71 0 0 +15 496 184 0 77
 150 0 15 154 235 0 497 150 496 17 497 0 154 497 497 0 118 57 0 0 -17 118 0 68 1
18 118 0 497 57 0 0 +15 68 261 0 118 67 0 15 28 623 0 26 141 0 141 135 120 498 4
98 18 141 498 122 135 135 18 40 3 130 0 1 3 644499594642459e-19 .304658770576478
5 ??.000509901951359279 -55e-5 .0057 .0001821880773151395 -55e-5 .00587061023868
575 -290121887489964e-33 -55e-5 .0059 41 1 131 L.000509901951359279 -55e-5 .0057
 41 1 132 L-290121887489964e-33 -55e-5 .0059 84 32 75 e7ed2349561cd5ee63a7ed96aa
6be00217 38 0 53 66 48 27 35 62 0 69 -19 16 5 0 1 0 8 4 S0 74 4 CI16 index_map_o
ffset0 0 1 dCCZ20 14 6 0 0 499 12 360 271 268 2 0 0 0 0 0 0 0 0 0 0 0 0 0 0 81 2
 499 1057 500 1 0 12 0 0 501 502 81 1 12 1071 503 1 499 2 0 0 504 80 1 503 505 5
06 9000 0 0 0 0 3 5 0 0 0 FFTFFFFFFFFFFF1 82 255 1 504 -1 79 19 506 UG2/PMARK_AT
TRIBUTE80 2 500 507 508 8004 0 0 0 0 3 5 0 0 0 FFTFFFFFFFFFFF2 3 83 1 501 .001 8
4 8 502 Kg/Cu M 79 16 508 SDL/TYSA_DENSITY80 1 11 509 510 9000 0 0 0 0 3 5 0 0 0
 FFTFFFFFFFFFFF1 82 1 13 87 79 24 510 UG2/BODY_COLOR_ATTRIBUTE1 0 
