  0
SECTION
  2
HEADER
  9
$ACADVER
  1
AC1009
  9
$INSBASE
 10
0.0
 20
0.0
 30
0.0
  9
$EXTMIN
 10
0.0
 20
0.0
 30
0.0
  9
$EXTMAX
 10
0.0
 20
0.0
 30
0.0
  0
ENDSEC
  0
SECTION
  2
TABLES
  0
TABLE
  2
VPORT
 70
0
  0
ENDTAB
  0
TABLE
  2
LTYPE
 70
1
  0
LTYPE
  2
CONTINUOUS
 70
0
  3
Solid line
 72
65
 73
0
 40
0.0
  0
ENDTAB
  0
TABLE
  2
LAYER
 70
1
  0
LAYER
  2
0
 70
64
 62
7
  6
continuous
  0
ENDTAB
  0
TABLE
  2
STYLE
 70
1
  0
STYLE
  2
STANDARD
 70
0
 40
0
 41
1.0
 50
0.0
 71
0
 42
1
 3
ARIAL.TTF
 4

  0
ENDTAB
  0
TABLE
  2
VIEW
 70
0
  0
ENDTAB
  0
ENDSEC
  0
SECTION
  2
BLOCKS
  0
BLOCK
  8
0
  2
POCKET001
 70
0
 10
0.0
 20
0.0
 30
0.0
  3
POCKET001
  0
ARC
  8
0
 62
0
 10
18.7642104878
 20
18.5609688183
 30
0.0
 40
3.0
 50
95.0
 51
170.0
  0
LINE
  8
0
 62
0
 10
18.5027432595
 20
21.5495529125
 30
0.0
 11
23.651377029
 21
22.0
 31
0.0
  0
LINE
  8
0
 62
0
 10
15.8097872287
 20
19.0819133513
 30
0.0
 11
15.469615506
 21
17.1527036447
 31
0.0
  0
ARC
  8
0
 62
0
 10
24.0
 20
18.0152212076
 30
0.0
 40
4.0
 50
0.0
 51
95.0
  0
LINE
  8
0
 62
0
 10
28.0
 20
18.0152212076
 30
0.0
 11
28.0
 21
12.0
 31
0.0
  0
ARC
  8
0
 62
0
 10
27.0
 20
12.0
 30
0.0
 40
1.0
 50
-41.4096221093
 51
-0.0
  0
ARC
  8
0
 62
0
 10
28.5
 20
10.6771243445
 30
0.0
 40
1.0
 50
138.590377891
 51
-180.0
  0
LINE
  8
0
 62
0
 10
27.5
 20
0.0
 30
0.0
 11
27.5
 21
10.6771243445
 31
0.0
  0
LINE
  8
0
 62
0
 10
9.0
 20
0.0
 30
0.0
 11
27.5
 21
0.0
 31
0.0
  0
ARC
  8
0
 62
0
 10
0.0
 20
0.0
 30
0.0
 40
9.0
 50
-0.0
 51
180.0
  0
LINE
  8
0
 62
0
 10
-35.5
 20
0.0
 30
0.0
 11
-9.0
 21
0.0
 31
0.0
  0
LINE
  8
0
 62
0
 10
-35.5
 20
0.0
 30
0.0
 11
-35.5
 21
2.35355339082
 31
0.0
  0
ARC
  8
0
 62
0
 10
-36.5
 20
2.35355339082
 30
0.0
 40
1.0
 50
0.0
 51
44.9999999998
  0
LINE
  8
0
 62
0
 10
-35.7928932188
 20
3.06066017201
 30
0.0
 11
-37.232233047
 21
4.5
 31
0.0
  0
ARC
  8
0
 62
0
 10
-39.0
 20
2.73223304704
 30
0.0
 40
2.5
 50
44.9999999998
 51
-180.0
  0
LINE
  8
0
 62
0
 10
-41.5
 20
0.0
 30
0.0
 11
-41.5
 21
2.73223304704
 31
0.0
  0
LINE
  8
0
 62
0
 10
-45.0
 20
0.0
 30
0.0
 11
-41.5
 21
0.0
 31
0.0
  0
LINE
  8
0
 62
0
 10
-45.0
 20
4.0
 30
0.0
 11
-45.0
 21
0.0
 31
0.0
  0
ARC
  8
0
 62
0
 10
-29.0
 20
4.0
 30
0.0
 40
16.0
 50
135.0
 51
180.0
  0
LINE
  8
0
 62
0
 10
-40.313708499
 20
15.313708499
 30
0.0
 11
-38.4979125952
 21
17.1295044028
 31
0.0
  0
ARC
  8
0
 62
0
 10
-24.3557769715
 20
2.98736877904
 30
0.0
 40
20.0
 50
95.0
 51
135.0
  0
LINE
  8
0
 62
0
 10
-19.369594162
 20
23.5
 30
0.0
 11
-26.0988918264
 21
22.9112627409
 31
0.0
  0
ARC
  8
0
 62
0
 10
-19.1081269337
 20
20.5114159057
 30
0.0
 40
3.0
 50
10.0
 51
95.0
  0
LINE
  8
0
 62
0
 10
-15.469615506
 20
17.1527036447
 30
0.0
 11
-16.1537036747
 21
21.0323604387
 31
0.0
  0
ARC
  8
0
 62
0
 10
-13.5
 20
17.5
 30
0.0
 40
2.0
 50
-170.0
 51
-90.0
  0
LINE
  8
0
 62
0
 10
13.5
 20
15.5
 30
0.0
 11
-13.5
 21
15.5
 31
0.0
  0
ARC
  8
0
 62
0
 10
13.5
 20
17.5
 30
0.0
 40
2.0
 50
-90.0
 51
-10.0
  0
ARC
  8
0
 62
0
 10
17.0
 20
13.75
 30
0.0
 40
0.75
 50
90.0
 51
-90.0
  0
LINE
  8
0
 62
0
 10
17.0
 20
14.5
 30
0.0
 11
20.0
 21
14.5
 31
0.0
  0
LINE
  8
0
 62
0
 10
17.0
 20
13.0
 30
0.0
 11
20.0
 21
13.0
 31
0.0
  0
ARC
  8
0
 62
0
 10
20.0
 20
13.75
 30
0.0
 40
0.75
 50
-90.0
 51
90.0
  0
LINE
  8
0
 62
0
 10
-1.5
 20
14.5
 30
0.0
 11
1.5
 21
14.5
 31
0.0
  0
ARC
  8
0
 62
0
 10
-1.5
 20
13.75
 30
0.0
 40
0.75
 50
90.0
 51
-90.0
  0
ARC
  8
0
 62
0
 10
1.5
 20
13.75
 30
0.0
 40
0.75
 50
-90.0
 51
90.0
  0
LINE
  8
0
 62
0
 10
-1.5
 20
13.0
 30
0.0
 11
1.5
 21
13.0
 31
0.0
  0
LINE
  8
0
 62
0
 10
-20.0
 20
14.5
 30
0.0
 11
-17.0
 21
14.5
 31
0.0
  0
ARC
  8
0
 62
0
 10
-20.0
 20
13.75
 30
0.0
 40
0.75
 50
90.0
 51
-90.0
  0
ARC
  8
0
 62
0
 10
-17.0
 20
13.75
 30
0.0
 40
0.75
 50
-90.0
 51
90.0
  0
LINE
  8
0
 62
0
 10
-20.0
 20
13.0
 30
0.0
 11
-17.0
 21
13.0
 31
0.0
  0
ARC
  8
0
 62
0
 10
0.0
 20
0.0
 30
0.0
 40
9.0
 50
180.0
 51
-0.0
  0
LINE
  8
0
 62
0
 10
-35.5
 20
-4.4408920985e-16
 30
0.0
 11
-35.5
 21
-2.35355339082
 31
0.0
  0
LINE
  8
0
 62
0
 10
-41.5
 20
0.0
 30
0.0
 11
-41.5
 21
-2.73223304704
 31
0.0
  0
LINE
  8
0
 62
0
 10
18.5027432595
 20
-21.5495529125
 30
0.0
 11
23.651377029
 21
-22.0
 31
0.0
  0
ARC
  8
0
 62
0
 10
24.0
 20
-18.0152212076
 30
0.0
 40
4.0
 50
-95.0
 51
-0.0
  0
LINE
  8
0
 62
0
 10
28.0
 20
-18.0152212076
 30
0.0
 11
28.0
 21
-12.0
 31
0.0
  0
ARC
  8
0
 62
0
 10
27.0
 20
-12.0
 30
0.0
 40
1.0
 50
-0.0
 51
41.4096221093
  0
ARC
  8
0
 62
0
 10
28.5
 20
-10.6771243445
 30
0.0
 40
1.0
 50
-180.0
 51
-138.590377891
  0
LINE
  8
0
 62
0
 10
27.5
 20
0.0
 30
0.0
 11
27.5
 21
-10.6771243445
 31
0.0
  0
ARC
  8
0
 62
0
 10
-36.5
 20
-2.35355339082
 30
0.0
 40
1.0
 50
-45.0
 51
-0.0
  0
LINE
  8
0
 62
0
 10
-35.7928932188
 20
-3.06066017201
 30
0.0
 11
-37.232233047
 21
-4.5
 31
0.0
  0
ARC
  8
0
 62
0
 10
-39.0
 20
-2.73223304704
 30
0.0
 40
2.5
 50
-180.0
 51
-45.0
  0
LINE
  8
0
 62
0
 10
-45.0
 20
-4.0
 30
0.0
 11
-45.0
 21
0.0
 31
0.0
  0
ARC
  8
0
 62
0
 10
-29.0
 20
-4.0
 30
0.0
 40
16.0
 50
-180.0
 51
-135.0
  0
LINE
  8
0
 62
0
 10
-40.313708499
 20
-15.313708499
 30
0.0
 11
-38.4979125952
 21
-17.1295044028
 31
0.0
  0
ARC
  8
0
 62
0
 10
-24.3557769715
 20
-2.98736877904
 30
0.0
 40
20.0
 50
-135.0
 51
-95.0
  0
LINE
  8
0
 62
0
 10
-19.369594162
 20
-23.5
 30
0.0
 11
-26.0988918264
 21
-22.9112627409
 31
0.0
  0
ARC
  8
0
 62
0
 10
-19.1081269337
 20
-20.5114159057
 30
0.0
 40
3.0
 50
-95.0
 51
-10.0
  0
LINE
  8
0
 62
0
 10
-15.469615506
 20
-17.1527036447
 30
0.0
 11
-16.1537036747
 21
-21.0323604387
 31
0.0
  0
ARC
  8
0
 62
0
 10
-13.5
 20
-17.5
 30
0.0
 40
2.0
 50
90.0
 51
170.0
  0
LINE
  8
0
 62
0
 10
13.5
 20
-15.5
 30
0.0
 11
-13.5
 21
-15.5
 31
0.0
  0
ARC
  8
0
 62
0
 10
13.5
 20
-17.5
 30
0.0
 40
2.0
 50
10.0
 51
90.0
  0
LINE
  8
0
 62
0
 10
15.8097872287
 20
-19.0819133513
 30
0.0
 11
15.469615506
 21
-17.1527036447
 31
0.0
  0
ARC
  8
0
 62
0
 10
18.7642104878
 20
-18.5609688183
 30
0.0
 40
3.0
 50
-170.0
 51
-95.0
  0
ARC
  8
0
 62
0
 10
17.0
 20
-13.75
 30
0.0
 40
0.75
 50
90.0
 51
-90.0
  0
LINE
  8
0
 62
0
 10
17.0
 20
-14.5
 30
0.0
 11
20.0
 21
-14.5
 31
0.0
  0
LINE
  8
0
 62
0
 10
17.0
 20
-13.0
 30
0.0
 11
20.0
 21
-13.0
 31
0.0
  0
ARC
  8
0
 62
0
 10
20.0
 20
-13.75
 30
0.0
 40
0.75
 50
-90.0
 51
90.0
  0
LINE
  8
0
 62
0
 10
-1.5
 20
-14.5
 30
0.0
 11
1.5
 21
-14.5
 31
0.0
  0
ARC
  8
0
 62
0
 10
-1.5
 20
-13.75
 30
0.0
 40
0.75
 50
90.0
 51
-90.0
  0
ARC
  8
0
 62
0
 10
1.5
 20
-13.75
 30
0.0
 40
0.75
 50
-90.0
 51
90.0
  0
LINE
  8
0
 62
0
 10
-1.5
 20
-13.0
 30
0.0
 11
1.5
 21
-13.0
 31
0.0
  0
LINE
  8
0
 62
0
 10
-20.0
 20
-14.5
 30
0.0
 11
-17.0
 21
-14.5
 31
0.0
  0
ARC
  8
0
 62
0
 10
-20.0
 20
-13.75
 30
0.0
 40
0.75
 50
90.0
 51
-90.0
  0
ARC
  8
0
 62
0
 10
-17.0
 20
-13.75
 30
0.0
 40
0.75
 50
-90.0
 51
90.0
  0
LINE
  8
0
 62
0
 10
-20.0
 20
-13.0
 30
0.0
 11
-17.0
 21
-13.0
 31
0.0
  0
ENDBLK
  0
ENDSEC
  0
SECTION
  2
ENTITIES
  0
INSERT
  2
POCKET001
  8
0
 62
0
 10
0.0
 20
0.0
 30
0.0
  0
ENDSEC
  0
EOF
