  0
SECTION
  2
HEADER
  9
$ACADVER
  1
AC1009
  9
$INSBASE
 10
0.0
 20
0.0
 30
0.0
  9
$EXTMIN
 10
0.0
 20
0.0
 30
0.0
  9
$EXTMAX
 10
0.0
 20
0.0
 30
0.0
  0
ENDSEC
  0
SECTION
  2
TABLES
  0
TABLE
  2
VPORT
 70
0
  0
ENDTAB
  0
TABLE
  2
LTYPE
 70
1
  0
LTYPE
  2
CONTINUOUS
 70
0
  3
Solid line
 72
65
 73
0
 40
0.0
  0
ENDTAB
  0
TABLE
  2
LAYER
 70
1
  0
LAYER
  2
0
 70
64
 62
7
  6
continuous
  0
ENDTAB
  0
TABLE
  2
STYLE
 70
1
  0
STYLE
  2
STANDARD
 70
0
 40
0
 41
1.0
 50
0.0
 71
0
 42
1
 3
ARIAL.TTF
 4

  0
ENDTAB
  0
TABLE
  2
VIEW
 70
0
  0
ENDTAB
  0
ENDSEC
  0
SECTION
  2
BLOCKS
  0
BLOCK
  8
0
  2
BODY
 70
0
 10
0.0
 20
0.0
 30
0.0
  3
BODY
  0
LINE
  8
0
 62
0
 10
-20.0
 20
0.0
 30
0.0
 11
-20.0
 21
-0.292893218813
 31
0.0
  0
LINE
  8
0
 62
0
 10
-20.0
 20
0.0
 30
0.0
 11
-20.4369966688
 21
3.50513846769
 31
0.0
  0
ARC
  8
0
 62
0
 10
-20.3535533906
 20
-0.646446609407
 30
0.0
 40
0.5
 50
-135.0
 51
45.0
  0
ARC
  8
0
 62
0
 10
-16.4677256949
 20
4.0
 30
0.0
 40
4.0
 50
87.0456375201
 51
-172.893423169
  0
LINE
  8
0
 62
0
 10
-20.7071067812
 20
-1.0
 30
0.0
 11
-21.5
 21
-1.0
 31
0.0
  0
ARC
  8
0
 62
0
 10
-16.1584826569
 20
9.99202542913
 30
0.0
 40
2.0
 50
-92.9543624799
 51
25.5215075918
  0
ARC
  8
0
 62
0
 10
-21.5
 20
-1.75
 30
0.0
 40
0.75
 50
90.0
 51
-90.0
  0
ARC
  8
0
 62
0
 10
-13.0
 20
11.5
 30
0.0
 40
1.5
 50
90.0
 51
-154.478492408
  0
LINE
  8
0
 62
0
 10
-21.5
 20
-2.5
 30
0.0
 11
-18.0635083269
 21
-2.5
 31
0.0
  0
LINE
  8
0
 62
0
 10
-13.0
 20
13.0
 30
0.0
 11
-9.00000045196
 21
13.0
 31
0.0
  0
ARC
  8
0
 62
0
 10
-20.0
 20
0.0
 30
0.0
 40
3.16227766017
 50
-52.238756093
 51
-18.4349488229
  0
ARC
  8
0
 62
0
 10
-9.0
 20
11.5
 30
0.0
 40
1.5
 50
-34.8486605201
 51
90.0000172636
  0
LINE
  8
0
 62
0
 10
-17.0
 20
0.0
 30
0.0
 11
-17.0
 21
-1.0
 31
0.0
  0
ARC
  8
0
 62
0
 10
-6.12767525156
 20
9.5000623661
 30
0.0
 40
2.0
 50
145.15133948
 51
-119.013550989
  0
ARC
  8
0
 62
0
 10
-16.5
 20
0.0
 30
0.0
 40
0.5
 50
-0.0
 51
180.0
  0
LINE
  8
0
 62
0
 10
-7.09770817646
 20
7.75105232478
 30
0.0
 11
-3.06138827184
 21
5.51246158659
 31
0.0
  0
LINE
  8
0
 62
0
 10
-16.0
 20
0.0
 30
0.0
 11
-15.5
 21
0.0
 31
0.0
  0
ARC
  8
0
 62
0
 10
-2.5763779264
 20
6.38696999983
 30
0.0
 40
1.0
 50
-119.013150216
 51
-30.8187101344
  0
ARC
  8
0
 62
0
 10
0.0
 20
-57.9633504898
 30
0.0
 40
60.0
 50
94.7685875354
 51
104.971190996
  0
ARC
  8
0
 62
0
 10
0.0
 20
4.85
 30
0.0
 40
2.0
 50
30.8187100738
 51
149.181289926
  0
ARC
  8
0
 62
0
 10
-4.83531746032
 20
0.0
 30
0.0
 40
1.83531746032
 50
-0.0
 51
94.7685875354
  0
ARC
  8
0
 62
0
 10
2.57637792694
 20
6.38696999892
 30
0.0
 40
1.0
 50
-149.181289926
 51
-60.9868496766
  0
LINE
  8
0
 62
0
 10
-2.5
 20
0.0
 30
0.0
 11
-3.0
 21
0.0
 31
0.0
  0
LINE
  8
0
 62
0
 10
3.06138827402
 20
5.51246158659
 30
0.0
 11
7.0977080508
 21
7.75105232478
 31
0.0
  0
ARC
  8
0
 62
0
 10
-2.0
 20
0.0
 30
0.0
 40
0.5
 50
-0.0
 51
180.0
  0
ARC
  8
0
 62
0
 10
6.12767543313
 20
9.5000623661
 30
0.0
 40
1.99999985099
 50
-60.9864567076
 51
34.8486622185
  0
LINE
  8
0
 62
0
 10
-1.5
 20
-1.5
 30
0.0
 11
-1.5
 21
0.0
 31
0.0
  0
ARC
  8
0
 62
0
 10
9.0
 20
11.5
 30
0.0
 40
1.5
 50
90.0
 51
-145.151337781
  0
ARC
  8
0
 62
0
 10
1.4e-16
 20
-0.875
 30
0.0
 40
1.625
 50
-157.380135052
 51
-22.619864948
  0
LINE
  8
0
 62
0
 10
13.0
 20
13.0
 30
0.0
 11
9.0
 21
13.0
 31
0.0
  0
LINE
  8
0
 62
0
 10
1.5
 20
6e-17
 30
0.0
 11
1.5
 21
-1.5
 31
0.0
  0
ARC
  8
0
 62
0
 10
13.0
 20
11.5
 30
0.0
 40
1.5
 50
-25.5215075918
 51
90.0
  0
ARC
  8
0
 62
0
 10
2.0
 20
0.0
 30
0.0
 40
0.5
 50
-0.0
 51
180.0
  0
ARC
  8
0
 62
0
 10
16.1584826569
 20
9.99202542913
 30
0.0
 40
2.0
 50
154.478492408
 51
-87.0456375201
  0
LINE
  8
0
 62
0
 10
2.5
 20
0.0
 30
0.0
 11
3.0
 21
0.0
 31
0.0
  0
ARC
  8
0
 62
0
 10
16.4677256949
 20
4.0
 30
0.0
 40
4.0
 50
-7.10657683053
 51
92.9543624799
  0
ARC
  8
0
 62
0
 10
4.83531746032
 20
0.0
 30
0.0
 40
1.83531746032
 50
85.2314124646
 51
180.0
  0
LINE
  8
0
 62
0
 10
20.0
 20
0.0
 30
0.0
 11
20.4369966688
 21
3.50513846769
 31
0.0
  0
ARC
  8
0
 62
0
 10
0.0
 20
-57.9633504898
 30
0.0
 40
60.0
 50
75.0288090041
 51
85.2314124646
  0
LINE
  8
0
 62
0
 10
20.0
 20
-1.5
 30
0.0
 11
20.0
 21
4.4408920985e-16
 31
0.0
  0
LINE
  8
0
 62
0
 10
16.0
 20
0.0
 30
0.0
 11
15.5
 21
0.0
 31
0.0
  0
ARC
  8
0
 62
0
 10
18.5
 20
-0.875
 30
0.0
 40
1.625
 50
-157.380135052
 51
-22.619864948
  0
ARC
  8
0
 62
0
 10
16.5
 20
0.0
 30
0.0
 40
0.5
 50
-0.0
 51
180.0
  0
LINE
  8
0
 62
0
 10
17.0
 20
0.0
 30
0.0
 11
17.0
 21
-1.5
 31
0.0
  0
ARC
  8
0
 62
0
 10
9.0
 20
11.5
 30
0.0
 40
0.5
 50
90.0
 51
-90.0
  0
LINE
  8
0
 62
0
 10
9.0
 20
12.0
 30
0.0
 11
13.0
 21
12.0
 31
0.0
  0
LINE
  8
0
 62
0
 10
9.0
 20
11.0
 30
0.0
 11
13.0
 21
11.0
 31
0.0
  0
ARC
  8
0
 62
0
 10
13.0
 20
11.5
 30
0.0
 40
0.5
 50
-90.0
 51
90.0
  0
CIRCLE
  8
0
 62
0
 10
9.08324243226
 20
4.85
 30
0.0
 40
0.8
  0
CIRCLE
  8
0
 62
0
 10
0.0
 20
4.85
 30
0.0
 40
0.8
  0
ARC
  8
0
 62
0
 10
-13.0
 20
11.5
 30
0.0
 40
0.5
 50
90.0
 51
-90.0
  0
LINE
  8
0
 62
0
 10
-13.0
 20
12.0
 30
0.0
 11
-9.0
 21
12.0
 31
0.0
  0
LINE
  8
0
 62
0
 10
-13.0
 20
11.0
 30
0.0
 11
-9.0
 21
11.0
 31
0.0
  0
ARC
  8
0
 62
0
 10
-9.0
 20
11.5
 30
0.0
 40
0.5
 50
-90.0
 51
90.0
  0
CIRCLE
  8
0
 62
0
 10
-9.08324243226
 20
4.85
 30
0.0
 40
0.8
  0
CIRCLE
  8
0
 62
0
 10
-16.4677256949
 20
4.0
 30
0.0
 40
2.7
  0
CIRCLE
  8
0
 62
0
 10
16.4677256949
 20
4.0
 30
0.0
 40
2.7
  0
CIRCLE
  8
0
 62
0
 10
18.5
 20
-1.5
 30
0.0
 40
0.5
  0
CIRCLE
  8
0
 62
0
 10
0.0
 20
-1.5
 30
0.0
 40
0.5
  0
ENDBLK
  0
ENDSEC
  0
SECTION
  2
ENTITIES
  0
INSERT
  2
BODY
  8
0
 62
0
 10
0.0
 20
0.0
 30
0.0
  0
ENDSEC
  0
EOF
